<?xml version="1.0" standalone="no"?><!DOCTYPE svg PUBLIC "-//W3C//DTD SVG 1.1//EN" "http://www.w3.org/Graphics/SVG/1.1/DTD/svg11.dtd"><svg t="1706342155773" class="icon" viewBox="0 0 1024 1024" version="1.1" xmlns="http://www.w3.org/2000/svg" p-id="1100" xmlns:xlink="http://www.w3.org/1999/xlink" width="64" height="64"><path d="M746.666667 486.4c51.2-46.933333 51.2-128 4.266666-179.2-46.933333-51.2-128-51.2-179.2-4.266667L512 358.4 456.533333 298.666667c-46.933333-51.2-128-51.2-179.2-4.266667s-51.2 128-4.266666 179.2L349.866667 554.666667l162.133333 170.666666 119.466667-115.2c38.4-42.666667 76.8-85.333333 115.2-123.733333z" fill="#F5CB2B" p-id="1101"></path><path d="M516.266667 878.933333c-8.533333 0-12.8-4.266667-17.066667-8.533333-8.533333-8.533333-8.533333-25.6 0-38.4l341.333333-345.6c34.133333-34.133333 51.2-72.533333 51.2-119.466667 0-46.933333-17.066667-89.6-51.2-119.466666-64-64-174.933333-64-238.933333 0-8.533333 8.533333-25.6 8.533333-38.4 0-8.533333-8.533333-8.533333-25.6 0-38.4 42.666667-42.666667 98.133333-64 157.866667-64 59.733333 0 115.2 21.333333 157.866666 64s64 98.133333 64 157.866666c0 59.733333-21.333333 115.2-64 157.866667l-341.333333 345.6c-8.533333 4.266667-17.066667 8.533333-21.333333 8.533333z" fill="#6A3906" p-id="1102"></path><path d="M516.266667 878.933333c-8.533333 0-12.8-4.266667-17.066667-8.533333l-136.533333-132.266667-209.066667-209.066666c-85.333333-85.333333-85.333333-226.133333 0-311.466667 12.8-12.8 76.8-76.8 162.133333-64 42.666667 8.533333 85.333333 29.866667 110.933334 64l8.533333 8.533333c4.266667 4.266667 12.8 17.066667 25.6 29.866667l38.4 46.933333c4.266667 4.266667 4.266667 4.266667 4.266667 8.533334 12.8 12.8 21.333333 17.066667 29.866666 21.333333 4.266667 4.266667 21.333333 8.533333 42.666667 8.533333s38.4-8.533333 51.2-12.8c12.8-8.533333 29.866667-4.266667 34.133333 8.533334 8.533333 12.8 4.266667 29.866667-8.533333 34.133333-17.066667 8.533333-42.666667 21.333333-76.8 21.333333-29.866667 0-51.2-8.533333-64-12.8-12.8-4.266667-29.866667-12.8-42.666667-29.866666-4.266667-4.266667-4.266667-4.266667-8.533333-12.8L413.866667 290.133333c-12.8-17.066667-21.333333-25.6-25.6-34.133333l-8.533334-8.533333c-17.066667-21.333333-51.2-42.666667-81.066666-46.933334-59.733333-8.533333-110.933333 42.666667-115.2 46.933334-29.866667 38.4-46.933333 81.066667-46.933334 123.733333 0 46.933333 17.066667 89.6 51.2 119.466667l209.066667 209.066666 136.533333 132.266667c8.533333 8.533333 8.533333 25.6 0 38.4-4.266667 4.266667-12.8 8.533333-17.066666 8.533333z" fill="#6A3906" p-id="1103"></path></svg>