<svg viewBox="0 0 1024 1024" height="1024" width="1024" xmlns:xlink="http://www.w3.org/1999/xlink" xmlns="http://www.w3.org/2000/svg">
  <defs>
    <style>
      .cls-1, .cls-10 {
        fill: #fff;
      }

      .cls-1 {
        opacity: 0;
      }

      .cls-2 {
        fill: url(#linear-gradient);
      }

      .cls-3 {
        fill: url(#linear-gradient-2);
      }

      .cls-4 {
        fill: url(#linear-gradient-3);
      }

      .cls-5 {
        fill: url(#linear-gradient-4);
      }

      .cls-6 {
        fill: url(#linear-gradient-5);
      }

      .cls-7 {
        fill: #d7dbe1;
      }

      .cls-8 {
        fill: url(#linear-gradient-7);
      }

      .cls-9 {
        fill: url(#linear-gradient-10);
      }
    </style>
    <linearGradient gradientUnits="objectBoundingBox" y2="0.766" x2="0.506" x1="0.5" id="linear-gradient">
      <stop stop-opacity="0.71" stop-color="#f8f8f8" offset="0"></stop>
      <stop stop-opacity="0" stop-color="#e2e7f2" offset="1"></stop>
    </linearGradient>
    <linearGradient gradientUnits="objectBoundingBox" y2="0.522" x2="0.5" x1="0.5" id="linear-gradient-2">
      <stop stop-color="#f8f8f8" offset="0"></stop>
      <stop stop-opacity="0" stop-color="#f8f8f8" offset="1"></stop>
    </linearGradient>
    <linearGradient gradientUnits="objectBoundingBox" y2="1.006" x2="0.338" y1="-0.019" x1="0.765" id="linear-gradient-3">
      <stop stop-color="#f8f8f8" offset="0"></stop>
      <stop stop-opacity="0" stop-color="#e2e7f2" offset="1"></stop>
    </linearGradient>
    <linearGradient xlink:href="#linear-gradient-3" y2="0.815" x2="0.65" y1="-0.019" x1="0.765" id="linear-gradient-4"></linearGradient>
    <linearGradient gradientUnits="objectBoundingBox" y2="1" x2="0.5" x1="0.5" id="linear-gradient-5">
      <stop stop-color="#f8f8f8" offset="0"></stop>
      <stop stop-color="#e2e7f2" offset="1"></stop>
    </linearGradient>
    <linearGradient gradientUnits="objectBoundingBox" y2="1" x2="0.5" x1="0.5" id="linear-gradient-7">
      <stop stop-color="#eaeef2" offset="0"></stop>
      <stop stop-color="#e1e6ed" offset="1"></stop>
    </linearGradient>
    <linearGradient xlink:href="#linear-gradient-3" y2="1" x2="0.5" y1="0" x1="0.5" id="linear-gradient-10"></linearGradient>
  </defs>
  <g transform="translate(-2410 -196)" id="无搜索结果">
    <rect transform="translate(2410 196)" height="1024" width="1024" class="cls-1" id="矩形_315"></rect>
    <g transform="translate(-1090)" id="组_185">
      <path transform="translate(3525.266 673.439) rotate(-7)" d="M4.09,304.412S-13.275,140.576,23.554,117.427,86.768,157.82,86.768,157.82,62.125,8.193,113.685.3s67.669,141.745,67.669,141.745-1.313-95.51,47.22-98.7,78.638,184.424,78.638,184.424Z" class="cls-2" id="路径_63"></path>
      <ellipse transform="translate(3522 870)" ry="135" rx="490" cy="135" cx="490" class="cls-3" id="椭圆_16"></ellipse>
      <path transform="translate(4299.784 802) rotate(7)" d="M13.651,69.778c28.8-20.168,9.3-36.928,24.476-44.085S63.246,13.6,64.392,0c6.011,17.749,19.18,26.623,9.947,49.883s6.334,45.7-10.734,63.838-53.031,13.956-53.031,13.956S-15.152,89.946,13.651,69.778Z" class="cls-4" id="路径_61"></path>
      <path transform="matrix(0.839, 0.545, -0.545, 0.839, 4396.998, 846)" d="M9.342,47.753c19.712-13.8,6.367-25.272,16.751-30.17S43.284,9.306,44.068,0c4.114,12.146,13.126,18.22,6.808,34.138s4.335,31.273-7.347,43.689S7.236,87.377,7.236,87.377-10.369,61.556,9.342,47.753Z" class="cls-5" id="路径_62"></path>
      <path transform="matrix(-0.545, -0.839, 0.839, -0.545, 3767.4, 923.944)" d="M12.814,0S-17.8,34.075,15.606,51.5C36.388,66.586,28.679,77.982,28.679,77.982s8.491-12.736-8.491-27.037C41.861,19.328,12.814,0,12.814,0Z" class="cls-6" id="路径_72"></path>
      <path transform="translate(3630.689 922.012) rotate(-118)" d="M7.132,0S-9.905,18.964,8.686,28.664C20.251,37.058,15.961,43.4,15.961,43.4s4.726-7.088-4.726-15.047C23.3,10.757,7.132,0,7.132,0Z" class="cls-6" id="路径_73"></path>
      <path transform="translate(3763.47 513.708)" d="M35.846,0h0A35.846,35.846,0,0,1,71.691,35.846v80.484a0,0,0,0,1,0,0H0a0,0,0,0,1,0,0V35.846A35.846,35.846,0,0,1,35.846,0Z" class="cls-7" id="矩形_338"></path>
      <path transform="translate(14194.907 8729.198)" d="M-10393.816-8215.429s23.162,2.144,23.826,48.081,4.639,288.868,4.639,288.868-.949,53.918,41.32,50.708,262.756-14.2,262.756-14.2l-10.822-282.275s3.713-87.7-62.859-90.854C-10163.32-8215.7-10393.816-8215.429-10393.816-8215.429Z" class="cls-8" id="路径_99"></path>
      <path transform="translate(14233.845 8811.527)" d="M-10345.818-7911.731s20.936.309,49.43-43.328,64.55-8.786,64.55-8.786l21.517,45.453Z" class="cls-7" id="路径_100"></path>
      <path transform="translate(14261.273 8812.317)" d="M-10282.548-7976.747s39.717,5.678,36.687,83.557c81.514-1.213,288.589,0,288.589,0s-2.441-81.155-53.156-83.557S-10282.548-7976.747-10282.548-7976.747Z" class="cls-8" id="路径_101"></path>
      <path transform="translate(4109.786 671.957) rotate(-36)" d="M74.45,209.391H60.491a9.317,9.317,0,0,1-9.306-9.306V171a9.3,9.3,0,0,1,6.98-9.013V133.214a66.858,66.858,0,1,1,18.612-.161v28.937A9.3,9.3,0,0,1,83.756,171v29.082A9.317,9.317,0,0,1,74.45,209.391ZM66.889,40.715A26.174,26.174,0,1,0,93.063,66.889,26.2,26.2,0,0,0,66.889,40.715Z" class="cls-6" id="路径_8757"></path>
      <path transform="translate(4194.424 316.874)" d="M39.53,115.775a40,40,0,0,1,0-79.99A39.029,39.029,0,0,1,54.2,38.632q-.109-1.408-.11-2.846a35.372,35.372,0,1,1,70.738,0,36.045,36.045,0,0,1-2.614,13.526,34.9,34.9,0,0,1,18.218-5.106,35.787,35.787,0,0,1,0,71.57Z" class="cls-9" id="联合_62"></path>
      <path transform="translate(3653.769 393.148)" d="M26.757,79C11.98,79,0,66.782,0,51.709S11.98,24.418,26.757,24.418a26.233,26.233,0,0,1,9.933,1.942q-.074-.961-.075-1.942a23.945,23.945,0,1,1,47.881,0,24.77,24.77,0,0,1-1.769,9.23,23.482,23.482,0,0,1,12.332-3.484,24.423,24.423,0,0,1,0,48.836Z" class="cls-9" id="联合_63"></path>
      <rect transform="translate(3864.934 629.846)" rx="20" height="40" width="218.875" class="cls-10" id="矩形_383"></rect>
      <rect transform="translate(3864.934 710.488)" rx="20" height="40" width="130" class="cls-10" id="矩形_384"></rect>
    </g>
  </g>
</svg>
