<?xml version="1.0" standalone="no"?><!DOCTYPE svg PUBLIC "-//W3C//DTD SVG 1.1//EN" "http://www.w3.org/Graphics/SVG/1.1/DTD/svg11.dtd"><svg t="1707205288489" class="icon" viewBox="0 0 1024 1024" version="1.1" xmlns="http://www.w3.org/2000/svg" p-id="5122" xmlns:xlink="http://www.w3.org/1999/xlink" width="18" height="18"><path d="M487.862857 418.669714l10.630095-95.427047-58.319238-6.485334-11.312762 101.912381H341.333333v58.660572h81.017905l-7.728762 69.339428H341.333333v58.660572h66.80381l-10.630095 95.427047 58.319238 6.485334 11.312762-101.912381h68.998095l-10.630095 95.427047 58.319238 6.485334 11.312762-101.912381H682.666667v-58.660572h-81.017905l7.728762-69.339428H682.666667v-58.660572h-66.80381l10.630095-95.427047-58.319238-6.485334-11.312762 101.912381h-68.998095z m62.488381 58.660572l-7.728762 69.339428h-68.973714l7.728762-69.339428h68.973714z" p-id="5123" fill="#000000" data-spm-anchor-id="a313x.search_index.0.i4.77ad3a810JEM9k" class="selected"></path><path d="M201.118476 896H512c25.039238 0 49.493333-2.389333 73.191619-6.972952C762.270476 854.869333 896 699.050667 896 512c0-212.065524-171.934476-384-384-384S128 299.934476 128 512c0 94.012952 33.792 180.150857 89.892571 246.905905L172.495238 849.67619c-10.654476 21.284571 4.827429 46.32381 28.623238 46.32381z m86.479238-145.334857l-24.795428-29.500953A323.779048 323.779048 0 0 1 186.660571 512C186.660571 332.312381 332.312381 186.660571 512 186.660571c179.687619 0 325.339429 145.65181 325.339429 325.339429 0 179.687619-145.67619 325.339429-325.339429 325.339429H244.248381l43.349333-86.674286z" p-id="5124" fill="#000000" data-spm-anchor-id="a313x.search_index.0.i3.77ad3a810JEM9k" class="selected"></path></svg>