<?xml version="1.0" standalone="no"?><!DOCTYPE svg PUBLIC "-//W3C//DTD SVG 1.1//EN" "http://www.w3.org/Graphics/SVG/1.1/DTD/svg11.dtd"><svg t="1706343098758" class="icon" viewBox="0 0 1024 1024" version="1.1" xmlns="http://www.w3.org/2000/svg" p-id="3046" xmlns:xlink="http://www.w3.org/1999/xlink" width="64" height="64"><path d="M755.2 934.4H268.8c-89.6 0-162.133333-72.533333-162.133333-162.133333V251.733333c0-89.6 72.533333-162.133333 162.133333-162.133333h486.4c89.6 0 162.133333 72.533333 162.133333 162.133333v520.533334c0 89.6-72.533333 162.133333-162.133333 162.133333zM268.8 140.8c-59.733333 0-110.933333 51.2-110.933333 110.933333v520.533334c0 59.733333 51.2 110.933333 110.933333 110.933333h486.4c59.733333 0 110.933333-51.2 110.933333-110.933333V251.733333c0-59.733333-51.2-110.933333-110.933333-110.933333H268.8z" fill="#6A3906" p-id="3047"></path><path d="M699.733333 823.466667H324.266667c-59.733333 0-106.666667-46.933333-106.666667-106.666667V307.2c0-59.733333 46.933333-106.666667 106.666667-106.666667h375.466666c59.733333 0 106.666667 46.933333 106.666667 106.666667v409.6c0 59.733333-46.933333 106.666667-106.666667 106.666667z" fill="#F5CB2B" p-id="3048"></path><path d="M738.133333 401.066667H285.866667c-12.8 0-25.6-12.8-25.6-25.6s12.8-25.6 25.6-25.6h452.266666c12.8 0 25.6 12.8 25.6 25.6 0 17.066667-8.533333 25.6-25.6 25.6zM584.533333 601.6h-298.666666c-12.8 0-25.6-12.8-25.6-25.6s12.8-25.6 25.6-25.6h298.666666c12.8 0 25.6 12.8 25.6 25.6s-12.8 25.6-25.6 25.6z" fill="#6A3906" p-id="3049"></path></svg>