<?xml version="1.0" standalone="no"?><!DOCTYPE svg PUBLIC "-//W3C//DTD SVG 1.1//EN" "http://www.w3.org/Graphics/SVG/1.1/DTD/svg11.dtd"><svg t="1706952386946" class="icon" viewBox="0 0 1024 1024" version="1.1" xmlns="http://www.w3.org/2000/svg" p-id="1618" xmlns:xlink="http://www.w3.org/1999/xlink" width="200" height="200"><path d="M874.42 878.57H679.47c-20.99 0-38-17.01-38-38s17.01-38 38-38h194.95c13.47 0 26.24-5.32 35.95-14.97 9.65-9.71 14.97-22.47 14.97-35.95 0-28.11-22.84-50.97-50.92-50.97h-48.74c-20.99 0-38-17.01-38-38V432.26c0-73.28-28.78-142.41-81.04-194.67-52.26-52.26-121.37-81.04-194.62-81.04-152.03 0-275.71 123.68-275.71 275.71v230.42c0 20.99-17.01 38-38 38h-48.74c-13.49 0-26.26 5.34-35.95 15.03-9.65 9.65-14.97 22.42-14.97 35.95 0 28.08 22.84 50.92 50.92 50.92h194.95c20.99 0 38 17.01 38 38s-17.01 38-38 38H149.58c-69.98 0-126.92-56.94-126.92-126.92 0-33.83 13.22-65.68 37.23-89.69 24.04-24.04 55.9-37.29 89.69-37.29h10.74V432.26c0-47.29 9.35-93.27 27.78-136.66 17.77-41.83 43.17-79.43 75.5-111.76s69.93-57.73 111.76-75.5c43.39-18.43 89.37-27.78 136.66-27.78 47.27 0 93.23 9.35 136.61 27.79 41.82 17.77 79.41 43.18 111.74 75.51 32.33 32.33 57.74 69.93 75.51 111.75 18.44 43.39 27.79 89.37 27.79 136.66v192.42h10.74c69.98 0 126.92 56.96 126.92 126.97 0 33.75-13.21 65.58-37.19 89.64l-0.09 0.09c-24.05 23.98-55.89 37.18-89.63 37.18z" fill="#ffffff" p-id="1619"></path><path d="M511.97 1021.59c-49.77 0-97.9-17.88-135.52-50.34-37.2-32.11-61.87-76.42-69.47-124.79l-6.89-43.89h423.8L717 846.46c-7.59 48.36-32.27 92.68-69.5 124.79-37.62 32.47-85.75 50.34-135.53 50.34zM397.15 878.57c22.59 40.54 65.71 67.02 114.82 67.02 49.13 0 92.27-26.48 114.87-67.02H397.15zM528.22 156.98c-5.8 0-11.3-1.3-16.22-3.63a37.944 37.944 0 0 1-16.22 3.63c-20.99 0-38-17.01-38-38V56.6c0-29.88 24.31-54.19 54.19-54.19 14.27 0 28.25 5.79 38.35 15.9 10.25 10.25 15.89 23.85 15.89 38.29v62.38c0.01 20.99-17 38-37.99 38z" fill="#ffffff" p-id="1620"></path></svg>