<?xml version="1.0" standalone="no"?><!DOCTYPE svg PUBLIC "-//W3C//DTD SVG 1.1//EN" "http://www.w3.org/Graphics/SVG/1.1/DTD/svg11.dtd"><svg t="1706952378683" class="icon" viewBox="0 0 1024 1024" version="1.1" xmlns="http://www.w3.org/2000/svg" p-id="1403" xmlns:xlink="http://www.w3.org/1999/xlink" width="200" height="200"><path d="M688.57 934.66H79.46c-21.1 0-41.28-9.03-55.37-24.76a74.673 74.673 0 0 1-18.55-57.94c16.24-146.19 112.21-271.17 246.07-322.14a240.603 240.603 0 0 1-78.54-85.51c-21.77-39.91-31.67-85.23-28.64-131.06 3.92-59.27 29.89-114.85 73.14-156.5 43.22-41.63 99.73-65.53 159.1-67.3 65.57-1.96 127.58 22.09 174.57 67.7 22.81 22.14 40.74 48.1 53.3 77.18 13.01 30.12 19.61 62.14 19.61 95.17 0 42.96-11.49 85.12-33.22 121.92-18.57 31.45-44.16 58.33-74.56 78.43 133.88 50.94 229.88 175.9 246.12 322.09a74.671 74.671 0 0 1-18.55 57.95c-14.09 15.75-34.27 24.77-55.37 24.77z m-607.3-76h605.5c-14.08-120.93-95.46-223.46-207.73-261.48-28.25-9.57-47.23-35.85-47.23-65.39v-0.6c0-24.55 13.05-47.32 34.07-59.43 50.75-29.25 82.28-83.76 82.28-142.27 0-44.78-17.7-86.62-49.84-117.82-32.12-31.18-74.52-47.59-119.37-46.27-83.48 2.49-153.18 69.63-158.68 152.85-4.15 62.81 26.96 121.47 81.18 153.09 21.46 12.51 34.79 35.45 34.79 59.86v0.53c0 29.54-18.98 55.81-47.23 65.38-112.29 38.06-193.67 140.6-207.74 261.55z" fill="#ffffff" p-id="1404"></path><path d="M949.07 934.66H415.86v-76h526.26c-13.83-101.74-83.08-187.53-178-219.68-26.66-9.03-44.56-33.83-44.56-61.72v-0.52c0-23.18 12.34-44.68 32.19-56.13 42.97-24.76 69.66-70.91 69.66-120.44 0-37.91-14.98-73.33-42.19-99.74-27.19-26.39-63.08-40.29-101.06-39.17-27.14 0.81-53.32 9.64-75.71 25.54l-44-61.97c34.66-24.61 75.27-38.28 117.45-39.54 58.71-1.75 114.19 19.77 156.26 60.6 20.42 19.81 36.47 43.06 47.71 69.08 11.65 26.96 17.55 55.62 17.55 85.19 0 38.46-10.28 76.19-29.73 109.14-15.1 25.57-35.39 47.77-59.37 65.11 114.51 47.13 196.11 155.87 210.19 282.58a70.09 70.09 0 0 1-17.42 54.41c-13.25 14.79-32.21 23.26-52.02 23.26z" fill="#ffffff" p-id="1405"></path></svg>